<svg xmlns="http://www.w3.org/2000/svg" viewBox="0 0 500 500">
  
<g transform="matrix(1.25,0,0,1.25,0,0)"><g transform="matrix(2,0,0,2,0,0)"><g>
    <path d="M177.68,124.48c2.49,6.31,5,14,4.81,21.47-.14,5.37.16,5.48-3.28,13.92-1.44,3.53-5.72,8.91-9.12,11a35.41,35.41,0,0,1-13.22,4.57,154.57,154.57,0,0,0-20.06,4.17c-8.63,1.75-12.54.86-21.32-1.06-6.14-1.35-8-1.77-14.45-1.76-20.24,0-41.4,3.22-40.7-16.8,0-.58.41-1.22,1-1.12a18.09,18.09,0,0,0,5.32-.69c1.45-.35,6.34-.93,7.54-4.16.48-1.32.61-1.19,3.22-5.35,4.2-6.68,6.22-6.59,9.55-8.86,1.3-.89,1.67-2.29.54-4a10.58,10.58,0,0,0,3.6-1.1,2.16,2.16,0,0,0,1.09-2.8,14.11,14.11,0,0,0,6.39,1.72c4.05.08,9.9-1.24,14.87-.71V133a32.29,32.29,0,0,0-13.66,4.28A7.77,7.77,0,0,0,97,140c-.13.25.09.36.25.21a18.86,18.86,0,0,1,3-2.23c2.58-1.67,8.49-3.67,14.24-4.17,3.54-.31,5.18-.12,8.51-.77a35,35,0,0,1,5.4-.59c1.9-.07,2.36.31,5.76-.46a47.87,47.87,0,0,1,6.86-1.25c4.45-.66,5.81-2.34,9.5-5.79A64.54,64.54,0,0,1,170,112.06c.75-.31.64-1.07-.37-.64-12,5-17.2,11.14-18.68,12,1.21-3.11,7.21-10.3,12.8-15.66.16-.16.28-.26.36-.33a.22.22,0,0,0-.23-.37,3.2,3.2,0,0,0-.68.42c-5.12,4-9.41,10.78-10.12,11.29.91-5.74,1.29-5.3,2.65-10.23,1.31-4.73.67-3.4,2-14.34.07-.52.15-.6.58-.64,1.33-.12,3.31-.41,3.33-1.73.09-6-.41-11.23-.57-13.34-.44-5.51-.26-3.48-.66-5.67-.78-4.27-1.43-6.37-2.78-8.64-.15-.25-.05-.43.24-.51a9.42,9.42,0,0,1,6.06.9,29.24,29.24,0,0,1,6.85,5.11c2.65,2.6,3.79,5.89,5.17,9.61,2.54,6.81,2.12,14.52,2.06,21.89C178,106.48,174.57,116.62,177.68,124.48ZM160.81,166.6a68.85,68.85,0,0,0-3.39-19.79c-1.42-4-4.8-10.87-8.64-12.76-.43-.18-.61.17-.25.48,2.38,2.06,5.19,4.49,8,12.37,3.2,9,3.62,19.57,3.66,19.72C160.26,167,160.78,167.06,160.81,166.6Zm-9.74-2.88a69.17,69.17,0,0,0-.68-15.66c-.53-2.59-2.16-9.23-4.57-10.37-.4-.19-.44.09-.31.38.33.76,2.42,1.25,4.18,10.53,1.06,5.6.78,14.79.79,15.07C150.5,164.2,151,164.1,151.07,163.72Zm-32.21-27c.26-.43-.26-.85-.72,0a46.43,46.43,0,0,0-4.94,12.77,56.77,56.77,0,0,0-1.28,18.79c0,.23.5.38.49-.06a62.7,62.7,0,0,1,1.42-17.49A52.71,52.71,0,0,1,118.86,136.68Zm-6.92,5.75c.17-.29.5-.62.33-.81-.69-.79-10.52,14.45-8.41,27,.07.42.53.48.49-.06C103.53,159,107,151,111.94,142.43Z" style="fill: #d6f3e3"></path>
    <path d="M160.9,91.6c0,.07.12.1.08.15a.83.83,0,0,1-.34.1c-2.32-.06-11.11-.79-13.43.26-.19,0-6.78.69-7,.72-.11-1.48.1-2.9-.1-7.36a5.25,5.25,0,0,1,.56-2.27,26.8,26.8,0,0,1,9.25-11.71c.64-.45.35-1.09-.84-.36-2.65,1.61-5.11,5-6.58,7.23-.62.94-1.06,1.68-1.27,2,0-5,.19-13.09,2.91-17.39,1.31-2.07,2.41-3.74,4.69-4.51a3.3,3.3,0,0,1,2.31-.14,9.67,9.67,0,0,1,4.14,3.34,23.16,23.16,0,0,1,4.39,11.27C160.6,77.91,160.89,86.55,160.9,91.6ZM148.78,77.76c.32-.4.91-1,.83-1.34-.13-.49-.62-.29-1,.15a39.23,39.23,0,0,0-3.13,4.71c-.57,1-2.46,5.68-1.6,5.77C144.52,87.1,144.15,83.64,148.78,77.76Z" style="fill: #ffffff"></path>
    <path d="M157.42,146.81a68.85,68.85,0,0,1,3.39,19.79c0,.46-.55.42-.63,0,0-.15-.46-10.7-3.66-19.72-2.8-7.88-5.61-10.31-8-12.37-.36-.31-.18-.66.25-.48C152.62,135.94,156,142.77,157.42,146.81Z" style="fill: #000001"></path>
    <path d="M157.14,93a22.87,22.87,0,0,1-.35,3.9,46.73,46.73,0,0,1-1.27,5.35c-2.13,8.1-4.61,7.61-11.2,8.34a68.23,68.23,0,0,1-10.65-.1c-4.9-.34-7.15-.82-14.35-1l-.59,0a19,19,0,0,0-.35-5.21l13.38-3.44c4.75-1.19,8.51-1.52,10.28-2.75,1.26-.88,1.1-1.68,1.29-4.18,0-.22,0-.5.11-.64s.4,0,.61-.06c7.23-1,6.71-1,10.3-.92C156.92,92.28,157.14,92.28,157.14,93Z" style="fill: #ffb68c"></path>
    <path d="M156,103c.07-.24.2-.21.25-.14-.38,6.05-3,10.11-3.57,14.5a22.12,22.12,0,0,1-3,7.1,12.86,12.86,0,0,1-9.74,5.62,38.41,38.41,0,0,0-6.12,1.11,13.62,13.62,0,0,1-4.32.48c-.22,0-.29-.11-.33-.32-.35-1.72-.5-10-4.49-16a9.6,9.6,0,0,1-1.43-4.71.25.25,0,0,1,.3-.31c7.47.53,6.67.76,10.89.93a83.8,83.8,0,0,0,11.81,0C152.4,110.62,154.08,109.36,156,103Zm-7.35,17.24c.06-.25-2.74-2.52-7.29-4.24-3.18-1.2-2.44-.85-5.48-2.08-.36-.15-1.21-.51-.87.06s5.88,2.59,5.92,2.6C146.12,118.55,148.5,120.68,148.6,120.23Zm-9.75,7.14c.14.3.6,0,.48-.33-2.66-7.72-7-11.67-9.37-14.29-.24-.26-.74-.4-.42.32l.07.08c4.11,4.83,4.83,5.36,7,9.66C137.39,124.32,138.42,126.61,138.85,127.37Z" style="fill: #ff9293"></path>
    <path d="M150.39,148.06a69.17,69.17,0,0,1,.68,15.66c0,.38-.57.48-.59-.05,0-.28.27-9.47-.79-15.07-1.76-9.28-3.85-9.77-4.18-10.53-.13-.29-.09-.57.31-.38C148.23,138.83,149.86,145.47,150.39,148.06Z" style="fill: #000001"></path>
    <path d="M149.61,76.42c.08.32-.51.94-.83,1.34-4.63,5.88-4.26,9.34-4.86,9.29-.86-.09,1-4.82,1.6-5.77a39.23,39.23,0,0,1,3.13-4.71C149,76.13,149.48,75.93,149.61,76.42Z" style="fill: #000001"></path>
    <path d="M141.31,116c4.55,1.72,7.35,4,7.29,4.24-.1.45-2.48-1.68-7.72-3.66,0,0-5.66-2.16-5.92-2.6s.51-.21.87-.06C138.87,115.14,138.13,114.79,141.31,116Z" style="fill: #000001"></path>
    <path d="M149.51,57.55a7.28,7.28,0,0,0-3.12,1.58c-5.63,4.55-5.4,12.93-5.95,20.2-.26,3.49-1.1,4.4-.89,7.58.08,1.29.07,5.65,0,6.13-.06,1.28,1.9,1.49,2.92,1.51a4.23,4.23,0,0,1-.19,2.12,2.63,2.63,0,0,1-1.92,1.49c-1.38.33-8.65,2-9.57,2.13.08-.92.65-6.81.79-8.17a89.38,89.38,0,0,1,1.23-8.89,58.61,58.61,0,0,1,1-7.93c.3-1.45,2.29-8.26,2.3-8.28.44-1.47,1.37-3.67,1.85-5.88,1.76-8.11.38-8.16,1.79-7.78C141.33,53.8,149.12,56.41,149.51,57.55Z" style="fill: #ff9293"></path>
    <path d="M139.33,127c.12.36-.34.63-.48.33-.43-.76-1.46-3.05-2.23-4.56-2.18-4.3-2.9-4.83-7-9.66l-.07-.08c-.32-.72.18-.58.42-.32C132.37,115.37,136.67,119.32,139.33,127Z" style="fill: #000001"></path>
    <path d="M137.47,52.37c.51.43.84.65.63,1.81a24,24,0,0,1-1.76,5.76c-1.23,2.67-4.23,7.46-7.13,7-1.94-.28-2.66-5.67-2.68-5.82-.06-.35,0-.13,2,1.65.09.09.46.32.57.1s-.15-.53-.28-.64c-.56-.48-1.6-1.54-2.4-2.33a.82.82,0,0,1,.09-1.25,15.45,15.45,0,0,0,5.06-5.58c.1-.21.37-.62.15-.69s-.44.09-.86.76c-2.06,3.24-6.28,6.82-10.14,6.64-4.31-.2-6.76-3.94-7.16-7.87a3.89,3.89,0,0,0,2.29,0c.16-.07.48-.57-.14-.55-1.82,0-2.93-.37-3.46-1.15-.72-1.07.44-1.91,2.31-1.51.78.17,1.07-.36.28-.52a4.15,4.15,0,0,0-1.79-.09c-.46.12-.21-.28-.8-.67-.33-.26-.63-.1-.67.32,0,.07,0,.26,0,.34a3,3,0,0,1-.95-1.23c.32,0,.67-.09.81-.35s.05-.61-.16-.65a.22.22,0,0,0-.16,0,1,1,0,0,1-.92.23,21.8,21.8,0,0,1-1.32-6.51c0-.25,0-.36.34-.4,2.58-.34,3.67-1.59,5.59-3.4.15-.14.21-.23.4,0,1.68,1.5,3.63.37,4.69-.76.19.42,1,.59,1.92,0-.2,1.53.68,2.31,2,2.8.89.33.13.7-.23,1.86a1.13,1.13,0,0,0,1.09,1.52c.4,0,.8,0,1.31,0-.38.68-.77,1.19-.5,1.8a.75.75,0,0,0,.58.49,2.25,2.25,0,0,0,2.63-1.38,3.68,3.68,0,0,1,1.69-2c1.94-1,4,.48,4.22,3.1.17,2.45-1.26,4.24-2.94,4.52a3,3,0,0,1-1.91-.53.26.26,0,0,0-.27.44,3.76,3.76,0,0,0,1.5.7c.81.2,1.61.48,2.42.69a3.92,3.92,0,0,1,1.62,1.16C135.69,50.8,136.83,51.81,137.47,52.37Zm-5.11-10.49c.08.08.49.08.38-.33a.88.88,0,0,0-1.07-.53A2.15,2.15,0,0,0,130,43.11c.14,2,1.76.7,2.35,1a.81.81,0,0,1,.38.64c.07,1-1.35,1-1.35,1.59,0,.27.61.14.86,0,1.87-1.12.65-2.51.46-2.62-.81-.48-2.13.42-1.76-.81C131.13,42.25,132,41.4,132.36,41.88Zm-7.2,11.47a1.07,1.07,0,0,0,.18-1.76c-.61-.45-1.37.36-1.38.95C124,53.34,124.45,53.67,125.16,53.35Zm-4.9-10.75c.21.47.54.29.52-.06a2,2,0,0,0-2.64-1.48c-1.92.71-2.79,2.49-3.57,3.83-.63,1.09-.94.66-1.11-.24-.08-.44-.59-.17-.59.14a2.39,2.39,0,0,0,.18.92.86.86,0,0,0,1,.54c1.42-.47,1.55-3.47,4.19-4.45A1.5,1.5,0,0,1,120.26,42.6Zm-2.67,3.94a1.46,1.46,0,0,0-.5-.9.43.43,0,0,0-.6,0,1,1,0,0,0,.42,1.35A.46.46,0,0,0,117.59,46.54Z" style="fill: #ffb68c"></path>
    <path d="M138.11,56.87a45.33,45.33,0,0,1-1,5c-.32,1.22-2,5.68-3.35,10.81a38.94,38.94,0,0,0-1.44,10.22c0,.8-.82,4.35-1,6.25,0,.2.14-1.65-1,10.41-.06.64-.2,1.14-1,1.27s-5.65,1.53-6.62,1.7c-.36.06-.42,0-.4-.4.13-2.49.29-4.65.78-11.52.64-9,2.49-22.75,3.33-26.9.59,1.78,1.39,3.78,3,4,1.79.25,4.19-2,5.31-3.52C137.29,60.6,137.71,57.1,138.11,56.87Z" style="fill: #ffffff"></path>
    <path d="M137,30.18c.6.21,1,.47,1,.75s-.35,1.11-.45,1.5c-.06.22-.19.28-.43.27-4.09,0-3.23,1-2.79,1.24,1.32.68,1.6.79,1.33,1.22A13.54,13.54,0,0,0,134,40c-1.8-1.74-4.91-.63-5.62,1.76A2.17,2.17,0,0,1,126.49,43c-1,.1-.11-1.19,0-1.44.77-1.72-3.07-.17-2.24-2,.34-.75,1.33-1.61,0-2.15-3-1.25-1.6-3-1.21-3.25s.16-.67-.28-.41c0,0-2.72,2-2.33.44.13-.53-.33-.61-.54-.19-.61,1.23-3.07,3-4.51,1.23-.76-1-.42.05-3.54,2.4a5.3,5.3,0,0,1-3,1.06,11.21,11.21,0,0,0-5.38,1.76c-.2.12-.32.07-.38-.16-.59-2.31-.63-2.22.11-2.45,2.46-.78,3.32-.75,3.45-1.58.22-1.44-2.79-1.11-4.15-.87-.35.06-.41.07-.46-.29a15.75,15.75,0,0,1-.16-1.83c0-.95.79-.14,4.22-.29.62,0,2.3-1.59-3.33-2.5a.2.2,0,0,1-.17-.18c0-.57.57-2.13,1.17-2,1.6.49,2.13,1,3.63,1.29a.84.84,0,0,0,1-.59c.23-.79-2.11-2.38-2.82-2.72-.28-.14-.32-.31-.22-.54.24-.54,1.27-2.34,1.89-1.77,1.57,1.46,2.06,2.14,2.47,2.49s1,.27,1.13-.39c.36-1.56,0-2.23-1.07-4.49-.23-.5-.23-.59.2-.88a5.61,5.61,0,0,1,.86-.49.63.63,0,0,1,.84.16,5.56,5.56,0,0,1,1.39,3.11c.14,1.09.6.57.62.41a11.65,11.65,0,0,1,.65-4.54c.33-.76.44-.77,1.07-.46.44.22.89.42,1.36.64-.9,1.47-1.6,3.63.06,4.09a1.25,1.25,0,0,0,1.4-.36c.83-1.06.87-1.81,1.06-3.76,0-.29.12-.49.43-.56s.75-.19,1.12-.26a.44.44,0,0,1,.51.42,7.25,7.25,0,0,1,0,2.74c0,.1-.26.55.06.72s.66-.45.89-.94c.6-1.29,1.54-4.08,2.71-3.63.69.26,1.83.64,1.45,1.26-.74,1.22-1.43,2-1.18,3.25a.42.42,0,0,0,.66.32,1,1,0,0,0,.17-.12c3.28-3.05,2.4-3.89,3.32-3.53.44.2.87.44,1.29.68s.26.52.17.81c-.62,2-1.2,2.31-2.59,3.36-.36.27.08.73.35.57,1.67-1,2.71-2,5.72-2,.88,0,1,1.74,1.06,2.36-2.48,0-4,.72-4.13,1.34s.61.76,1.43.6c2.06-.21,3.18-.55,3.3.12a18.19,18.19,0,0,1,.1,1.95c0,.25-.22.19-.4.2-1.47-.05-2,.1-2.38.37s-.19.49.27.44A6.58,6.58,0,0,1,137,30.18Z" style="fill: #595959"></path>
    <path d="M132.74,41.55c.11.41-.3.41-.38.33-.41-.48-1.23.37-1.43,1-.37,1.23.95.33,1.76.81.19.11,1.41,1.5-.46,2.62-.25.15-.85.28-.86,0,0-.58,1.42-.61,1.35-1.59a.81.81,0,0,0-.38-.64c-.59-.3-2.21,1-2.35-1A2.15,2.15,0,0,1,131.67,41,.88.88,0,0,1,132.74,41.55Z" style="fill: #000001"></path>
    <path d="M128.32,131.24c.06.33.06.35-.28.37a16.08,16.08,0,0,0-4.31.52c-3.1.68-3.24.39-7.77.08-7.25-.49-13.7,1-18.12.52A11.67,11.67,0,0,1,89,127.78c-.37-.48-1.17,0,0,1.4.73.87,1.47,1.74,2.19,2.62,2,2.45-3.38,2.93-4.61,3.15a.49.49,0,0,0-.35.82c.34.5,2.76,1.85-.71,3.82-5.9,3.34-7,6.12-9.28,9.56-2.49,3.8-2.07,2.94-2.62,4.34-.94,2.44-4.27,3.49-7.62,4-6,.83-5.78.53-11.73-3.31-2.25-1.45-3.62-2.06-3.88-4.7-.24-2.44-.38-3.57,1.24-5.42,3.46-4,3.71-3.48,6.23-7.08,5.19-7.45,5-6.29,6.53-8.16,2.85-3.61,4.44-11.67,11.55-16.19a.6.6,0,0,1,.41-.09c.1,0,19.44,4.62,20.51,4.16,1.51-.65,7.8-5.7,8.56-6.34a1.15,1.15,0,0,1,.61-.33,10.87,10.87,0,0,0,3.1-.9,1,1,0,0,1,1.19.28,5.71,5.71,0,0,0,2.55,1.28c1.46.32,3-.5,3.28-.41.12,0,.18.26.26.41a.69.69,0,0,0,.65.37,3.55,3.55,0,0,0,.86-.1.75.75,0,0,0,.63-.57c0-.2.19-.23.44-.2,3.06.28,3.61-.12,3.63.51a9.1,9.1,0,0,0,1.26,4.87,33.59,33.59,0,0,1,3.56,8.78C127.83,126,127.61,126.8,128.32,131.24Zm-45.66,4.65c.23.33.57.15.4-.18a24.09,24.09,0,0,1-3.43-15.94c0-.35.22-1.31-.12-1.21C78.64,118.81,77.73,129.07,82.66,135.89Zm-5.28-20.26c.22-.52-.34-.61-.53-.24a31.13,31.13,0,0,0-2.78,9.79,35.75,35.75,0,0,0,.72,14A11.61,11.61,0,0,0,76,142c.11.18.23.52.47.39s0-.43-.06-.63C74.53,138.35,72.45,127.59,77.38,115.63Z" style="fill: #6f95b5"></path>
    <path d="M125.68,60.44a.78.78,0,0,1,.18.7c-.47,4.06-.55,4.82-.63,5.33,0,.1-1.67,9-3,23.64,0,0-.7,11.18-.68,12.35a.4.4,0,0,1-.33.46c-3.12.79-3.06.83-3.23.43-.09-.19-.21-.34-.65-.4l-.33,0c0-.33,2-10.25,2.76-15.39,1.77-11.73,1.84-17,5.4-26.62A.69.69,0,0,1,125.68,60.44Z" style="fill: #ff9293"></path>
    <path d="M125.34,51.59a1.07,1.07,0,0,1-.18,1.76c-.71.32-1.2,0-1.2-.81C124,51.93,124.74,51.15,125.34,51.59Z" style="fill: #000001"></path>
    <path d="M124.47,61.23c-3.51,9.76-4,16.16-5.13,25.23,0,.29-.18.2-.91.09a25.88,25.88,0,0,0-4.43-.22c.46-3.12,3-13,4.06-16.26C119.53,65.29,121.66,62.87,124.47,61.23Z" style="fill: #ffffff"></path>
    <path d="M120.78,42.54c0,.35-.31.53-.52.06a1.5,1.5,0,0,0-2-.8c-2.64,1-2.77,4-4.19,4.45a.86.86,0,0,1-1-.54,2.39,2.39,0,0,1-.18-.92c0-.31.51-.58.59-.14.17.9.48,1.33,1.11.24.78-1.34,1.65-3.12,3.57-3.83A2,2,0,0,1,120.78,42.54Z" style="fill: #000001"></path>
    <path d="M118.82,87.16c.38,0,.43.11.35.48-1.56,6.92-2.26,14-2.76,15.25a1.7,1.7,0,0,0-1,.92c-1.27-.64-2.64-1.14-3.87-1.91a12,12,0,0,0-5.83-1.9c-1,0-1.64.53-3,1.35-4.32-1-4-.42-3.88-1.31,0-.35-.32-.39-.43-.09s-.18.67-.31,1c-1.52,3.86-2.19,6.17-2.66,5.24s.11-3.14.2-4.24a1.2,1.2,0,0,0-.77-1.15,4.44,4.44,0,0,0-2.6-.63,17.2,17.2,0,0,0-2.41.74,1.09,1.09,0,0,0-.6,1.51c.21.59.43,1.18.62,1.77a.82.82,0,0,1-.42,1.15c-.32.2-.57.11-.65-.26-.58-3-1.55-2.56-1.19-4,.44-1.72.69-1.61,3.18-2.49.85-.3.49-.88,0-.65-1.39.68-3.92.7-3.86,3.79a4.37,4.37,0,0,1-.24.89c0,.18,0,.59,0,.78-.16.86-.85.89-.91.36-.11-1-.57-1.73-.34-2.21.71-1.3-.27-2.52,1.81-3.51l1-.5c.45-.22,0-.5-.19-.42-2.35.84-2.41,1.28-2.78,2.38-.13.37,0,.52-.21,1.29-1.14-.41-.57-.73-.17-2.61.24-1.1,1.13-1.26,2.42-1.84.72-.33.51-.67.22-.59a5.62,5.62,0,0,0-1.13.33,3.72,3.72,0,0,0-1.7,1.14.68.68,0,0,1-.15.08c-.32-.63,1.25-2.51,3.29-2.43,3.81.16,3.12,0,4,.09a44,44,0,0,1,9.44,1.3c.76.14,2.55.31,4,.58a52.1,52.1,0,0,0,5.68,1.06c.47,0,3.34.37,3.45-.11.06-.26-.22-.25-.38-.33s-.52.09-.6-.18c0-.09,1.73-9.69,1.73-9.71s.07-.27.1-.41a.24.24,0,0,1,.26-.23A16,16,0,0,1,118.82,87.16Z" style="fill: #ffb68c"></path>
    <path d="M118.34,108.72a4.3,4.3,0,0,1-.21,1.18c-.16.56-.4.68-1,.56.07-.19.15-.38.22-.58a6.81,6.81,0,0,0,.17-2.34,11.16,11.16,0,0,0-.86-4.06c.07-.08.52-.06.66-.06.31,0,.38.14.6.78A15.63,15.63,0,0,1,118.34,108.72Z" style="fill: #269eef"></path>
    <path d="M118.14,136.73l-.43.83a44.58,44.58,0,0,0-4.51,11.94,56.79,56.79,0,0,0-1.28,18.79c0,.23.5.38.49-.06a62.7,62.7,0,0,1,1.42-17.49,55.41,55.41,0,0,1,4.4-12.91c.21-.4.42-.78.63-1.15S118.6,135.83,118.14,136.73Z" style="fill: #000001"></path>
    <path d="M117.09,45.64a1.46,1.46,0,0,1,.5.9.46.46,0,0,1-.68.47,1,1,0,0,1-.52-1.14A.42.42,0,0,1,117.09,45.64Z" style="fill: #000001"></path>
    <path d="M116.77,105.34A12.86,12.86,0,0,1,117,109c0,.27-.19.52-.43.48-.82-.12-1.29.64-3.17.56a3.15,3.15,0,0,1-1-.31,5,5,0,0,1-1.72-1.07c-.43-.4,0-.42.41-1.1,0-.11,0-.28-.34-.17a14.6,14.6,0,0,1-3.15,1.62,9.26,9.26,0,0,1-1.72.45c-1.19.21-1.38-.88-.6-1.48a30.21,30.21,0,0,0,2.9-2.33.16.16,0,0,0-.07-.28c-.16,0-.34-.08-.39-.28s-.32,0-.32.15-.23.45-.43.62c-.51.44-1,.9-1.54,1.33s-.94.59-1.15,1.18c-.07.18-.32.07-.46,0a1.18,1.18,0,0,1-.09-1.89.92.92,0,0,1,.28-.24,7.27,7.27,0,0,0,1.51-1.45c.95-.94,1.5-1,.88-1.35s-.32-.06-.76.4c-.21.21-.42.42-.61.65a5.68,5.68,0,0,1-1.48,1.37,2.59,2.59,0,0,0-.82,1.2,2.55,2.55,0,0,1-1.85,1.52c-.21,0-.44.09-.57-.14-.26-.5.82-.64,1.29-2.32a2.82,2.82,0,0,1,.35-.57c.74-1,.49-1.45,2.08-2.26l.88-.47a.56.56,0,0,0,.32-.38.15.15,0,0,0-.17-.17,4.49,4.49,0,0,0-1.53.64,3.32,3.32,0,0,0-1.24,1,6.07,6.07,0,0,1-.51,1,3.64,3.64,0,0,0-.67.85c-.23.48-.24,1.1-1,1.59a1.38,1.38,0,0,1-.93.23A.32.32,0,0,1,99,107c.68-.75,1.38-1,1.87-2.34a3.88,3.88,0,0,1,1.52-1.89,2.91,2.91,0,0,0,.69-.71,3.73,3.73,0,0,1,4.33-1.23,8,8,0,0,1,2.74,1.14c1,.68,2.22,1.1,3.32,1.67C116.73,105.34,116.5,104.18,116.77,105.34Z" style="fill: #ffb68c"></path>
    <path d="M112.27,141.62c.17.19-.16.52-.33.81-4.9,8.56-8.41,16.57-7.59,26.13,0,.54-.42.48-.49.06C101.75,156.07,111.58,140.83,112.27,141.62Z" style="fill: #000001"></path>
    <path d="M104.28,109a1.17,1.17,0,0,0,.79,1c-3.57,2.78-7.12,5.74-8.6,6-.62.13-14.67-2.58-24.26-5-2.07-.53-8.43-2.25-10-2.89-.24-.09-.24-.24-.24-.28,0-.26,0-.51,0-.8s-.67-.35,20.46,4.81a106,106,0,0,0,14.14,2.74c.43.05.57,0,5.38-3.59.54-.4.75-1-.09-.41-1.29,1-3.54,2.55-4.88,3.39-.25.19-.46.07-.77,0a139.81,139.81,0,0,1-14.6-2.83c-.55-.13-18.49-4.56-18.73-4.6s.13-.18.2-.21c2.44-1.35,11.93-5.9,20.52-9.82a.36.36,0,0,0,.14-.11l.41,0a1.28,1.28,0,0,0,.09,1.42c.21.35.19.38-.2.59-13.84,7.35-14.57,7.4-14.09,8.09a1.51,1.51,0,0,0,1,.47c1.55.33,18.6,3.65,18.6,3.65a.8.8,0,0,0,.87-.23c.8-.74.47-.28,4.31-3.42a.54.54,0,0,1,.66-.09.81.81,0,0,0,1.09-.33,5.85,5.85,0,0,0,.44-1c.25-.77.46-.44,3.46-3,.41-.33.11-.61-.24-.33-.83.67-1.68,1.32-2.5,2l-.23.15a26.46,26.46,0,0,1,1.28-3.31l3.84.75a7.17,7.17,0,0,1-.62.5,3.22,3.22,0,0,0-1.27,1.44,9.1,9.1,0,0,1-2,2.83c-.53.63-.32,1.26.5,1.43a4,4,0,0,0,.51.06,1.27,1.27,0,0,0,1.43,1.09,5.88,5.88,0,0,0,1.89-1C103.18,108.6,103.7,109.12,104.28,109Zm-4.75.71c-.27.16-1.43,1.21-2.16,1.78a1.1,1.1,0,0,1-.73.25,35.93,35.93,0,0,1-3.56-.83c-.13-.06.09-.28.16-.34,1.64-1.49,1.72-1.56,3.85-3.31.27-.22.37-.74-.34-.18s-1.23,1-3.86,3.29c-.4.35-.44.72.06.9s3.7.84,3.72.84a1,1,0,0,0,.64-.08,16.41,16.41,0,0,0,2.45-2C99.8,109.69,99.65,109.62,99.53,109.7Z" style="fill: #ffffff"></path>
    <path d="M103.07,77.06c-.7.16-17.75,2.27-18.24,2.32-.25,0-.4,0-.39-.13s.12-.22.43-.27c.68-.1,17.43-2.39,18.11-2.36S103.54,77,103.07,77.06Z" style="fill: #000001"></path>
    <path d="M99.77,109.84a.71.71,0,0,1,0,.15,16.41,16.41,0,0,1-2.45,2,1,1,0,0,1-.64.08s-3.19-.66-3.72-.84-.46-.55-.06-.9c2.62-2.35,3.22-2.78,3.86-3.29s.61,0,.34.18c-2.13,1.74-2.2,1.82-3.85,3.31-.07.06-.29.28-.16.34a35.93,35.93,0,0,0,3.56.83,1.1,1.1,0,0,0,.73-.25c.86-.68,2-1.75,2.2-1.8A.16.16,0,0,1,99.77,109.84Z" style="fill: #000001"></path>
    <path d="M94.43,101.2a3,3,0,0,0-2.59-.35,10.9,10.9,0,0,0-1.91.69.44.44,0,0,0-.16.34c.12.31.47-.14,1.7-.53.27-.06.27.22-.46.58l-1,.46a.5.5,0,0,0,0,.12c.1,0,4,.56,4.29.65s.13.26-.06.43c-.44.3-1.55,1.17-2.17,1.63l1.3.33a.2.2,0,0,1-.08.38c-.16,0-.44-.09-1.12-.25a1.13,1.13,0,0,0-.79,0c-.08,0-.47.35-2.21,1.71l2,.35c.18,0,.4,0,.38.26s-.28.15-.42.13c-.68-.11-1.35-.21-2-.37a.69.69,0,0,0-.63.16l-2.1,1.6,3.22.64a.7.7,0,0,0,.64-.12c1.4-1.15,2.8-2.28,4.21-3.41.83-.66-.15-.34.59-4.14C95.23,101.58,95.11,101.62,94.43,101.2Z" style="fill: #ffffff"></path>
    <path d="M93.35,59.71c.18-.08.36.07.34.3-.31.35-12.81,10.1-13,10.14s-.46-.15-.24-.33C81.74,68.75,92.76,60,93.35,59.71Z" style="fill: #000001"></path>
    <path d="M90.56,102.92c-.35-.06-.46,0-.39.4a3.65,3.65,0,0,1,.35,1.67,1.71,1.71,0,0,1-.77.88.9.9,0,0,1-1.2-.28,10.73,10.73,0,0,1-.61-1.69l-3.75,2.58,4.1.78a.68.68,0,0,0,.58-.12c.69-.56,1.48-1.13,2.18-1.66-.07-.1-.41-.08-.37-.31a.17.17,0,0,1,.14-.14c.27,0,.41.16.79,0a13.54,13.54,0,0,0,2-1.55Z" style="fill: #ffffff"></path>
    <path d="M88.11,107.73a16.74,16.74,0,0,0-2,1.55.58.58,0,0,1-.52.12c-1.15-.24-3.45-.66-4.19-.81a.1.1,0,0,1,0-.18c2.17-1.46,2.19-1.61,2.51-1.56,3.16.52,3.9.67,4.2.74A.08.08,0,0,1,88.11,107.73Z" style="fill: #ffffff"></path>
    <path d="M87.32,102.75c.56.69.56.71-.16,1.09C87.21,103.48,87.26,103.14,87.32,102.75Z" style="fill: #ffffff"></path>
    <path d="M85.16,104.12a5.87,5.87,0,0,0-.45-2.21l-2.32,1.46a.43.43,0,0,0,0,.11l2.24.43c.17,0,.21.16,0,.32a.28.28,0,0,1-.2,0c-.79-.14-1.58-.28-2.36-.45a.71.71,0,0,0-.55.08c-1.07.69-2.13,1.3-2.52,1.63a39.23,39.23,0,0,0,4.15.82.85.85,0,0,0,.69-.15c.6-.41,1.2-.84,1.85-1.3C85.19,104.65,85.17,104.61,85.16,104.12Z" style="fill: #ffffff"></path>
    <path d="M83.82,100.32a1.6,1.6,0,0,0,.83,1.07c-1.21-.41-2.47-.44-3.79-.78l3.32-1.76C84.12,99.41,83.73,99.81,83.82,100.32Z" style="fill: #ffffff"></path>
    <path d="M83.06,135.71c.17.33-.17.51-.4.18-2.93-4-4-9.67-3.8-14.52,0-.86.31-2.71.65-2.81s.16.86.12,1.21A24.09,24.09,0,0,0,83.06,135.71Z" style="fill: #000001"></path>
    <path d="M83,106.71a.13.13,0,0,1,0,.1,18.18,18.18,0,0,1-2,1.42,1.28,1.28,0,0,1-.92.08c-4-.85-3.84-.67-4.17-.92,2.58-1.47,2.5-1.55,2.9-1.52C83,106.64,83,106.61,83,106.71Z" style="fill: #ffffff"></path>
    <path d="M80.89,95.53c.57-.25.77.12.36.31-2.28,1.06-9.18,4-18.18,7.88-.18.07-.44.28-.55,0s.2-.31.37-.39C67.43,101.31,76.46,97.44,80.89,95.53Z" style="fill: #000001"></path>
    <path d="M81.2,91.44c.09.27-.18.32-.38.39-8.07,2.87-20.2,7.39-20.71,7.38a.18.18,0,0,1,0-.34C65.82,96.71,74,93.76,80.7,91.39,80.88,91.33,81.12,91.2,81.2,91.44Z" style="fill: #000001"></path>
    <path d="M79.41,87.47c.06.35,0,.2-12.5,4.49-5.27,1.8-4,1.43-9.22,3.13-.16,0-.37.2-.45-.06s.18-.27.33-.33c13.31-4.54,21.31-7.34,21.64-7.4A.19.19,0,0,1,79.41,87.47Z" style="fill: #000001"></path>
    <path d="M78.39,85c.3.57,0,1-.51,1.25a2.5,2.5,0,0,1-.41.16s-17.7,5.46-18.69,5.75c-2.61.78-3,.81-3.6,0A112.88,112.88,0,0,1,46,76.6a2.14,2.14,0,0,1-.19-.59.59.59,0,0,1,.5-.67c2.61-.55,21.76-4.11,24.23-4.15.45,0,.59.39.75.66C74.3,76.89,74.19,77.05,78.39,85Zm-1,.82c.47-.14.58-.35.39-.75-.8-1.73-5.08-10.45-7-13-.27-.36-.35-.43-.78-.36,0,0-16.72,2.72-23.78,4.22,2.67,5.77,8.32,14.33,9.31,15.87C56.14,92.76,56.18,92.53,77.38,85.82Z" style="fill: #000001"></path>
    <path d="M77.77,85.07c.19.4.08.61-.39.75-21.22,6.72-21.24,6.94-21.88,5.94-1-1.54-6.64-10.1-9.31-15.87C53.25,74.39,70,71.68,70,71.67c.43-.07.5,0,.78.36C72.69,74.62,77,83.34,77.77,85.07Zm-6.15.19c1.24-.43,1.65-1.82.16-2.88-.16-.12-8.42-6.46-10.31-7.47-1.06-.56-1.79,0-2.12,1-.11.33-1.11,6.17-1.49,10.74,0,.51,0,1.45.33,1.79a1.78,1.78,0,0,0,1.72.35C60.59,88.63,63.66,88,71.62,85.26Z" style="fill: #ffa69f"></path>
    <path d="M76.85,115.39c.19-.37.75-.28.53.24-4.93,12-2.85,22.72-1,26.16.11.2.37.47.06.63s-.36-.21-.47-.39c-2.58-4.25-2.53-11.84-1.93-16.85A31.13,31.13,0,0,1,76.85,115.39Z" style="fill: #000001"></path>
    <path d="M76.62,90.39c.59-.21.71.24.12.46-8,3-16.55,6.07-17.39,6.39-.41.15-.47-.27-.24-.36C62.11,95.71,58.4,97.14,76.62,90.39Z" style="fill: #000001"></path>
    <path d="M76,46.4c.28,0,.38.28.24.53-9.66,17-9.47,16.91-9.76,16.71s-.07-.32,5-9.33C76.25,45.71,75.63,46.76,76,46.4Z" style="fill: #000001"></path>
    <path d="M80.47,100.92c-.17,0-.13,0-3.73,1.87-5,2.63-6.17,3.25-6.42,3.42a.11.11,0,0,0,.05.19c.24,0,.5.08,4.66.94a.65.65,0,0,0,.64-.14c.32-.38.34-.26,2.09-1.5-1.23-.22-2.34-.42-3.44-.64-.13,0-.43,0-.39-.24s.3-.13.45-.1l3.5.62a.84.84,0,0,0,.72-.12A20.38,20.38,0,0,0,81,103.63c-.21-.17-.11-.06-2.8-.57-.16,0-.68-.4.25-.32s1.74.32,2.6.51a1.17,1.17,0,0,0,.94-.17c.48-.32,1.89-1.21,2.15-1.38C83.78,101.52,80.49,100.92,80.47,100.92Z" style="fill: #ffffff"></path>
    <path d="M75.55,95.34c.12,0,.29-.07.32.24-.35.35.36,0-13.83,5.9-.17.07-.43.29-.55,0s.19-.32.37-.4C66.44,99.13,75.25,95.43,75.55,95.34Z" style="fill: #000001"></path>
    <path d="M74.85,112.22c-.11.12-.22.24-.34.35-5.44,5-5.75,5.83-8.29,11.23A16.6,16.6,0,0,1,63,129c-5,5.35-3.8,5.07-6.58,8.42-3.11,3.76-4.12,4.19-6.06,6.71-1,1.33-.84,2.25-1,4.19a16.09,16.09,0,0,1-3-1.93,4.48,4.48,0,0,1-1.55-2.49c-1-4.61,1.08-5.78,4-8.95,4.48-4.93,3.67-6,8.47-11.17,2.76-3,2.5-4.13,4.29-7.66a21.15,21.15,0,0,1,4.16-5.95.66.66,0,0,1,.8-.17C71.72,111.55,72.88,111.62,74.85,112.22Zm-8.71,2.92c.09-.38,0-.62-.08-.67-.41-.23-.77,1-1,1.83s-4.21,11.92-3.23,12c.76.1.46-2.93,2.89-9.31C65.15,117.82,66,115.52,66.14,115.14Zm-6.21,8.41c.25-.57-.09-.78-.38-.19a31.61,31.61,0,0,0-2.17,5.69c-.71,2.64-.79,3.85-.33,3.77S57.53,129,59.93,123.55Z" style="fill: #6f95b5"></path>
    <path d="M71.83,83.11c.88.8,0,1.51-.59,1.72a119.48,119.48,0,0,1-11.58,3.55,1.09,1.09,0,0,1-1.31-1.27c.1-1,1.19-10.17,1.63-11.37a.91.91,0,0,1,1.48-.34C62.68,76.27,70.59,82,71.83,83.11ZM64.89,86a1,1,0,0,0,1-.94.86.86,0,0,0-.82-.9,1,1,0,0,0-1,.84A.9.9,0,0,0,64.89,86ZM64,83.75c.5-.16.85-.53.82-.89,0-.12-.07-.26-.11-.38C63,77.72,63.16,78,62.93,77.64a.41.41,0,0,0-.38-.1c-.46.18-.91.4-1.36.61-.73.34-.43.55.31,2l1.68,3.24C63.39,83.76,63.62,83.85,64,83.75Z" style="fill: #ff4931"></path>
    <path d="M71.78,82.38c1.49,1.06,1.08,2.45-.16,2.88a121.79,121.79,0,0,1-11.71,3.55,1.78,1.78,0,0,1-1.72-.35c-.38-.34-.37-1.28-.33-1.79.38-4.57,1.38-10.41,1.49-10.74.33-1,1.06-1.58,2.12-1C63.36,75.92,71.62,82.26,71.78,82.38Zm-.54,2.45c.58-.21,1.47-.92.59-1.72C70.59,82,62.68,76.27,61.46,75.4a.91.91,0,0,0-1.48.34c-.44,1.2-1.53,10.37-1.63,11.37a1.09,1.09,0,0,0,1.31,1.27A119.48,119.48,0,0,0,71.24,84.83Z" style="fill: #000001"></path>
    <path d="M66.06,114.47c.09,0,.17.29.08.67s-1,2.68-1.46,3.9c-2.38,6.23-2.15,9.41-2.89,9.31-1-.13,3-11.48,3.23-12C65.29,115.5,65.65,114.24,66.06,114.47Z" style="fill: #000001"></path>
    <path d="M65.89,85a1,1,0,0,1-1,.94.9.9,0,0,1-.79-1,1,1,0,0,1,1-.84A.86.86,0,0,1,65.89,85Z" style="fill: #000001"></path>
    <path d="M64.78,82.86c0,.36-.32.73-.82.89-.34.1-.57,0-.78-.37-.56-1.08-2.12-4-2.31-4.44s-.12-.59.32-.79.9-.43,1.36-.61a.41.41,0,0,1,.38.1,2.87,2.87,0,0,1,.3.67C63.69,79.71,64.75,82.74,64.78,82.86Z" style="fill: #000001"></path>
    <path d="M61.42,106.86a3.71,3.71,0,0,1,0,1,2.74,2.74,0,0,1-1.33-.88C57.73,104.16,42.75,81,41.71,77.65a3.35,3.35,0,0,1,.56-3.53c0,1.93,1.2,3.67,2.38,5.93,2.4,4.59,7.06,11.92,7.74,13,4.21,6.78,3.83,6.24,8.46,12.9A3.09,3.09,0,0,1,61.42,106.86Z" style="fill: #ffffff"></path>
    <path d="M59.55,123.36c.29-.59.63-.38.38.19-2.42,5.53-2.48,9.21-2.88,9.27s-.38-1.13.33-3.77A31.61,31.61,0,0,1,59.55,123.36Z" style="fill: #000001"></path>
    <path d="M59.75,158.6c.24.09.33.23.11.41-.4.33-.8.66-1.23,1a12,12,0,0,0-2.5,3.17c-.33.54,0,.61-.8,1.15l-1.72,1.09a2.32,2.32,0,0,1-.37.13l-.07-.08c1.56-2.66,1.5-2.44,2.83-4.63a22.13,22.13,0,0,1,2.36-2.71C58.78,158.23,59.26,158.4,59.75,158.6Z" style="fill: #ffffff"></path>
    <path d="M59.09,71.14a.53.53,0,1,1,0,1,.56.56,0,0,1-.49-.57A.47.47,0,0,1,59.09,71.14Z" style="fill: #000001"></path>
    <path d="M57.46,64.43a.16.16,0,0,1-.27.12c-.28-.45-2.84-10.72-3.84-14.65-.05-.2-.08-.34.14-.41s.33.2.36.33C57.66,65.05,57.39,63.9,57.46,64.43Z" style="fill: #000001"></path>
    <path d="M57.77,157.79c-.29.32-.52.62-.8.88a9.19,9.19,0,0,0-1.73,2.05c-.52.84-2.26,3.7-2.6,4.3a3.51,3.51,0,0,0-.21.72,2.56,2.56,0,0,1-2.12-.5,11.5,11.5,0,0,0,.7-.94,33.36,33.36,0,0,0,2.16-3.46c.58-1.25,1.89-2.08,2.82-4.07.07-.14.13-.28.3-.16C56.78,157,57.25,157.37,57.77,157.79Z" style="fill: #ffffff"></path>
    <path d="M56.24,164.58c-.05.75,0,1.42-.7,1.87-.5.32-.93.75-1.44,1a4.35,4.35,0,0,1-4,.11,5.27,5.27,0,0,1-2.47-2.83l1.13-.85a2.93,2.93,0,0,0,2.36,2.55C53.25,167,54.53,165.66,56.24,164.58Z" style="fill: #fc6dbf"></path>
    <path d="M55.33,155.83c.33.19.37.2.1.74-.93,1.85-1.64,1.82-3.3,4.65-.69,1.17-1.41,2.33-2.18,3.59a4.06,4.06,0,0,1-.63-1.71.82.82,0,0,1,0-.44,3.38,3.38,0,0,0-.36-3.21c-.2-.28-.36-.6-.57-1,3.34-3.27,2.35-2.79,3.18-4.85l1.11.79c-.94,1.71-1.06,2.71-2.34,4.19a3,3,0,0,0-.39.55.4.4,0,0,0,0,.37.48.48,0,0,0,.64-.2,9.16,9.16,0,0,0,2.08-3.61l.44-1C53.94,155.12,54.64,155.46,55.33,155.83Z" style="fill: #ffffff"></path>
    <path d="M55.41,167.38a1.28,1.28,0,0,1,.34-.07c-.51,1-1,2-1.44,3-3.68-1.77-9.67-.17-12.59,1.94l-.69.51c-1.26-1.39-2.37-3-5.18-3.42-2.46-.36-3.19-.46-5.42.28-.27.09-.39.1-.58-.18A4.58,4.58,0,0,0,28,167.63a9.1,9.1,0,0,0-3.18-.77,3.05,3.05,0,0,1,0-.74c.44-2-1.3-3.23-.17-3.43,3.06-.57,3.66-.22,6.25-1.11l.25-.06c0,1.32.36,3.9,1.42,4.81a3.75,3.75,0,0,0,1.54.78c3.48.88,6.45,1.74,7.9,1.6a1.3,1.3,0,0,0,1.1-1.63,53.43,53.43,0,0,1-.83-7.28.68.68,0,0,1,.25-.37,30.27,30.27,0,0,1,3.85-2.57c.63.42,1.07,1.67,1.76,2.76.09.17.21.33.3.5a3,3,0,0,1-.17,3c-.53.88-1.77.9-2.81,2.22a.31.31,0,0,0,.08.51c1.49-1,1.44-1,1.6-.61A5.67,5.67,0,0,0,51,168.7C52.86,169.26,54.12,168.17,55.41,167.38Z" style="fill: #f1d7f2"></path>
    <path d="M54,170.94a.39.39,0,0,1,.12.31,15.9,15.9,0,0,1-.8,5.52c-.09.35-.18.42-.53.3a82.14,82.14,0,0,0-10.9-3.78l-.23-.14c3.06-2.27,8.49-3.74,11.84-2.5A1.92,1.92,0,0,1,54,170.94Z" style="fill: #269eef"></path>
    <path d="M53,177.9c.26.07.25.26.24.45,0,.64,0,2.68-.1,3.26,0,.42-.13.44-.52.31-2.81-.95-2.68-.58-2.66-1.36.12-1.08-1.38-1.48-1.72-.62-.13.24-.24.28-.53.24a17.73,17.73,0,0,1-3.11-1c-.21-.08-.28-.16-.23-.38.23-.9.14-1.1-.28-1.23-.7-.2-1.29-.28-1.57.34-.17.39-.22.4-.64.29a11.87,11.87,0,0,1-3.12-1,.25.25,0,0,1-.16-.37c.3-.83-1.09-1.48-1.55-.8-.58.88-3.25-.38-4.32-.82a.71.71,0,0,1-.45-.6c-.13-1.64-1.33-1.53-1.73-1.07a1.15,1.15,0,0,1-1.41.36c-3.63-1.28-3.41-1.19-3.5-1.78a1,1,0,0,0-1-1,1,1,0,0,0-.85.3c-.66.58-.77.38-3.62-1a.45.45,0,0,1-.29-.54c.14-.79-.93-1.68-1.7-1a.41.41,0,0,1-.56,0,21,21,0,0,1-2.41-1.6.76.76,0,0,1-.17-1l1.19-2.12c1.21,1.83,4.6,3.6,5.58,4C34.06,172.75,41.58,173.11,53,177.9Z" style="fill: #ffffff"></path>
    <path d="M50.72,152.4c.25.33.19,1.68-.71,3.19a12.22,12.22,0,0,1-1.67,1.87c-.41.38-.74-.21-.75-.23-.42-.68-.54-.8-1-1a18.51,18.51,0,0,1,3.18-4.85A11.42,11.42,0,0,1,50.72,152.4Z" style="fill: #ffffff"></path>
    <path d="M50.25,102.55c.28-.23.61,0,.35.28-.49.57-9.87,11.44-11.66,13.38-.47.51-.67,0-.45-.21S50.13,102.66,50.25,102.55Z" style="fill: #000001"></path>
    <path d="M49.5,149.59c0,.5.11.81-.19,1.21a37.87,37.87,0,0,0-3.77,5.66c-.12.2-.13.18-1.39,1a2,2,0,0,1-.19-1.66,3.5,3.5,0,0,0-.83-3.37.42.42,0,0,1,.06-.64c.36-.35.7-.7,1.06-1,1.3-1.21,1.26-2.92,1.74-3.48l1.08.77a19,19,0,0,1-2.22,4.11c-.19.28-.6.7-.34.93s.64-.27.7-.33a14.56,14.56,0,0,0,2.32-4.11c.09-.19.21-.26.42-.15l1.13.59A.65.65,0,0,1,49.5,149.59Z" style="fill: #ffffff"></path>
    <path d="M44.93,66.28c.45.55.21.78-.27.26C32.27,52.85,32,52.73,32.47,52.51c.13-.07.27.06.37.17C34.67,54.51,44.91,66.26,44.93,66.28Z" style="fill: #000001"></path>
    <path d="M42.83,153.38a3,3,0,0,1,.09,3.19,1.45,1.45,0,0,1-1.39.87,9.37,9.37,0,0,0-2.83.51c-.4.14-.8.24-1.31.39-.36-4.29-.75-4.82-.2-5.26a25.35,25.35,0,0,1,3.48-2.44C41.09,150.37,41.06,150.78,42.83,153.38Z" style="fill: #f1d7f2"></path>
    <path d="M42.74,91c0,.07,0,.2-.17.26-.54.24-13.79,6-15.36,6.61-.21,0-.31-.2-.18-.34.49-.57,12.76-5.56,15.1-6.45C42.29,91,42.65,90.85,42.74,91Z" style="fill: #000001"></path>
    <path d="M42.4,167.26c.08.46-.18.78-.65.72a43.73,43.73,0,0,1-7.17-1.58,3.4,3.4,0,0,1-1.68-.82,9.29,9.29,0,0,1-.86-4.52,1.1,1.1,0,0,1,.74-.74c2.89-.84,1.8-.36,5-1.29,2.31-.67,3.3-1.15,4.65-.58a1.77,1.77,0,0,0-.83,1.52A49.61,49.61,0,0,0,42.4,167.26Z" style="fill: #fc6dbf"></path>
    <path d="M40.19,172.88l-9.64-2.54.26-.17a8,8,0,0,1,3.9-.33,7.16,7.16,0,0,1,4.94,2.32A2.83,2.83,0,0,1,40.19,172.88Z" style="fill: #269eef"></path>
    <path d="M37.7,75.27c.06.06.21.3-.35.17s-16.72-4-16.93-4-.32-.61.4-.44c2.26.54,12,3,12.13,3C35.16,74.54,37.47,75,37.7,75.27Z" style="fill: #000001"></path>
    <path d="M36.61,158.41c0,.5-.63.2-3.83,1.14a2.88,2.88,0,0,0-1.21.69.47.47,0,0,1-.36.13c-.92-.22-1.84-.44-2.74-.72-.54-.11-.81-.34-1-1a11.31,11.31,0,0,1-.63-3.11,1.62,1.62,0,0,1,.05-.62,1,1,0,0,1,.73-.81l2.95-.8c3-.82,3.59-1.22,5-1.39,1.06-.14,1.31-.16,1.48.32a1.59,1.59,0,0,0-.76,1.49C36.23,154.4,36.48,156.65,36.61,158.41Z" style="fill: #fc6dbf"></path>
    <path d="M29.12,160.7c.33.09.68.16,1.06.25-.51.53-3.22.53-5,.93a1.36,1.36,0,0,1-.77-.11,20.42,20.42,0,0,0-2.91-1.1c-.51-.1-1.17-.18-1.55-.21a5.66,5.66,0,0,0-.55-3.44c-.09-.34,0-.49.35-.55a48.73,48.73,0,0,0,6.34-1.21,15.1,15.1,0,0,0,.83,3.85A3.11,3.11,0,0,0,29.12,160.7Z" style="fill: #f1d7f2"></path>
    <path d="M27,168a5.8,5.8,0,0,0-2.41-.33c-.42.08-.58-.15-.56-.59a5.56,5.56,0,0,0-.23-3.1,1.69,1.69,0,0,1,0-1.56,3.34,3.34,0,0,0-1.33-.06c-2.29.12-3.38-.08-4.68.36a1,1,0,0,0-.45,1.6c2.25,2.52,7.91,4.35,11.15,5.35.23.07.46.23.77.09A3.74,3.74,0,0,0,27,168Z" style="fill: #269eef"></path>
    <path d="M22,161.53c0,.23-.85,0-2.11.15-2.52.23-7.87-3.27-7.6-4.22.18-.65.77-1.15,2.55-1.31a38.46,38.46,0,0,1,3.95,0,1.34,1.34,0,0,0,.06,1.35,4.56,4.56,0,0,1,.37,2.55c-.13.88-.09.77.75,1S22,161.15,22,161.53Z" style="fill: #269eef"></path>
    <path d="M194.16,114.37l-17,2.17a.94.94,0,0,1-.06-.24c.12-5.27,1.59-11.63,1.61-15.28.07-13.44-.22-14.38-1.53-19.9-.81-3.43-3.24-9.44-5.93-12-4.61-4.34-8.56-6.89-14-6.16a.48.48,0,0,1-.34-.14c-1.68-2.87-2.79-3.73-5.63-5.28-4.3-2.76-6.82-3.2-11.66-4.85a6.71,6.71,0,0,1-2-1,21.49,21.49,0,0,1-3.85-3.91c-.19-.23-.15-.36.06-.56a5.54,5.54,0,0,0,1.2-5.37,3.55,3.55,0,0,1-.27-1.79,14.33,14.33,0,0,1,1.62-4.94c.5-1-.88-1.3-1.59-1.64,2.27-.54,3,.38,3.3-.52.19-.58.37-1.16.51-1.76a1,1,0,0,0-.23-1,15.48,15.48,0,0,0-1.42-.83c-.34-.17-.17-.07-.38-2.41a.92.92,0,0,0-.73-.85c-1.06-.3-3,.18-3.69.21-.19,0-.25-.11,0-.22a7.68,7.68,0,0,1,2.83-.53c.29,0,.62,0,.8-.27a2.54,2.54,0,0,0-.78-3c-1-.64-3.23.06-4.31.44a4.91,4.91,0,0,0,.81-2.38,1.06,1.06,0,0,0-.47-.94,8.34,8.34,0,0,0-1.46-.81c-.61-.21-.87-.15-1.18.39a9.24,9.24,0,0,1-2.52,3.14.08.08,0,0,1-.13,0,1.47,1.47,0,0,1,.08-.71,9.71,9.71,0,0,1,.92-1.62c1-1.51-.29-1.94-2-2.52-.7-.24-1.8,1.57-2,2.07s-.41.88-.62,1.35c-.12-.58-.15-1.49-.26-1.84a1,1,0,0,0-1.29-.67,11.64,11.64,0,0,0-1.15.34,1.2,1.2,0,0,0-.77,1.08c-.17.94-.16,3.7-1.51,3.52s-.43-1.84.1-3.12a.61.61,0,0,0-.15-.84c-.31-.28-.33-.29-1.91-1a.67.67,0,0,0-1,.24,5.64,5.64,0,0,0-.87,2.59c0,.2-.08.39-.1.58a.08.08,0,0,1-.15,0,6.36,6.36,0,0,0-.31-.71c-.41-.79-1.06-1.63-1.62-1.41-1,.38-2.47,1.17-2.06,2.17.61,1.47,1.6,2.73,1.26,4.31-.17.79-1.19-1.39-2.6-2.44s-2.72,1.25-3,2.48a.56.56,0,0,0,.29.66,8.94,8.94,0,0,1,2.51,1.89c.2.19.09.39-.19.42a11,11,0,0,1-3.05-1.08,1.15,1.15,0,0,0-1.69.62,3.53,3.53,0,0,0-.54,1.84.69.69,0,0,0,.72.69c.82,0,3.75.48,3.51,1.32-.16.58-3.42-.3-4.46-.1a.56.56,0,0,0-.42.48,6.75,6.75,0,0,0,.16,2.72.56.56,0,0,0,.67.44s3.76-.77,3.85.1c.07.58-1.27.72-3.46,1.31-.55.15-.63.42-.58,1a6.08,6.08,0,0,0,.74,2.49.66.66,0,0,0,.91.18l.44-.28c2.62-1.35,2.68-1.21,4.13-1.38a18.05,18.05,0,0,0,1.36,6.8c-.73.12-1.42.73-.8,1.94.13.25.39.32.52.21s0-.39-.13-.67c-.19-.66.63-1.11.82-.72a4.43,4.43,0,0,0,1.59,1.87,1.66,1.66,0,0,0,.64,2.51c.36.25.58.35.62.51.63,5.93,4.38,9.07,8.67,8.77a9.82,9.82,0,0,0,3.5-1c.07,0,.19.15.32.29a26.87,26.87,0,0,0-4.48,3.32c-2,2.09-3.17,5.66-4.14,8.89,0,0-2.18,7.66-3.57,14.4a1.62,1.62,0,0,0,.79,1.79.48.48,0,0,1,.24.53c-1.43,9.77-1.22,8.7-2.26,8.61a33.06,33.06,0,0,1-4.73-.77,53,53,0,0,0-5.69-.93c-4.06-.72-4.56-1.11-10-1.29-1,0-1.37.06-3.26,0a6.81,6.81,0,0,0-2,.24c-.24.07-.4-.22-.52-.44C77.45,78.31,74.43,72.12,73.11,70c-.51-.81-1.14-1.87-3.82-1.54C64.35,69,49.7,70.66,44.91,72c-3.69,1-4.73,3.61-3.61,6.31,2,4.9,13.27,21.74,16.46,26.36a25,25,0,0,0,2.27,3,3.71,3.71,0,0,0,1.89.93,27.73,27.73,0,0,1,3.34,1.09c-.87.52-3.35,4-3.79,4.93-1.92,3.93-2.31,6.16-5.24,9.1a24.08,24.08,0,0,0-3,3.54A38,38,0,0,1,50,132a2,2,0,0,1-1.67.91c-.42,0-41.88,5.33-42.95,5.46-.16,0-.35,0-.33.25s.37.27.71.23c3.36-.41,42.61-5.41,43-5.45-1,1.68-5.61,4.14-5,9,.43,3.38,1.9,3.74,1.47,4.43-.68,1.06,0,2.12-2.78,4.59a4.16,4.16,0,0,0-1-1.43.76.76,0,0,0-1.1,0l-2.67,1.81a1.55,1.55,0,0,0-1.71-.71c-2.56.29-4.19,1.24-5.33,1.42a20.4,20.4,0,0,0-3.45.92,1.69,1.69,0,0,0-.77.68.81.81,0,0,1-.45.36,48.08,48.08,0,0,1-5.65,1.15c-.81.19-6.73-.76-8.06.6a13,13,0,0,0-2.43,3.54c-.85,1.77,1,2.29,2.73,3.41a1,1,0,0,0,1.22,0c.38-.25.7-.08.65.36a1.15,1.15,0,0,0,.48,1.05c.39.29,0,.43-.38,1.29-.93,1.82,1,2.35,2.72,3.5a1.29,1.29,0,0,0,1.34,0c1-.57.07,1,1.34,1.68,0,0,1.83.9,2.89,1.32a1.26,1.26,0,0,0,1.4-.3c.47-.44.59-.29.74.27.07.83.79,1.14,4.25,2.31a1.63,1.63,0,0,0,1.76-.5c.52-.52.65.42.65.5,0,1.11,2,1.71,3,2.08.26.09,2.11.69,2.55.16s.72-.63.65,0c-.06.49,0,.65.48.85A15.59,15.59,0,0,0,41.86,179c1.23.32,1.06-.95,1.76-.76.46.12-.78,1.17,1,1.75a17.34,17.34,0,0,0,3,.92c1.4.21,1.1-.85,1.56-.69s-.35,1,.37,1.37a23.18,23.18,0,0,0,3.43,1.13c.6.13.91-.66.94-1.26a14.73,14.73,0,0,0,0-3.67,1.4,1.4,0,0,1,0-.81c1.84-5.84.2-4.63,1.51-7.36.31-.65.65-1.28.9-1.95a7.35,7.35,0,0,0,.48-4,.6.6,0,0,1,0-.35c1.89-3.13,1.33-2.22,2.89-3.29-.06.42-.08.75-.14,1-.9,4.52,2.52,11,7.74,13.64C75.9,179,92,177.65,94.79,177.55c8.3-.31,12.55-.35,21,1.84,5.11,1.2,13,2.36,18.17,1.5,11-1.82,2.78-1.6,22.39-4.35a54.1,54.1,0,0,0,13.3-4.36c4.3-2.31,8.8-8.07,10.56-12.48,3.46-8.62,2.86-8.44,3.09-14,.25-6.26-2.33-14.86-4.73-21a18.94,18.94,0,0,1-1.44-7.25c0-.24.05-.36.28-.39l17.15-2.15C195,114.88,195.47,114.2,194.16,114.37Zm-43-56.07a9.59,9.59,0,0,1,4.14,3.34,23,23,0,0,1,4.39,11.27c.94,5,1.24,13.64,1.25,18.69,0,.07.12.1.08.15a.83.83,0,0,1-.34.1c-13.17-.34-5.24-.79-20.45,1-.12-1.55.11-2.77-.1-7.36a5.25,5.25,0,0,1,.56-2.27,26.91,26.91,0,0,1,9.25-11.71c.64-.45.35-1.09-.84-.36-2.44,1.49-4.73,4.49-6.23,6.7-.85,1.26-1.33,2.09-1.62,2.51,0-5,.19-13.09,2.91-17.39,1.28-2,2.42-3.75,4.69-4.51A3.25,3.25,0,0,1,151.12,58.3ZM89,129.18c.73.87,1.47,1.74,2.19,2.62,2,2.45-3.38,2.93-4.61,3.15a.49.49,0,0,0-.35.82c.34.5,2.76,1.85-.71,3.82-5.9,3.35-7,6.12-9.28,9.56-2.49,3.8-2.07,2.94-2.62,4.34-.94,2.44-4.27,3.49-7.62,4-6,.83-5.78.53-11.73-3.31-2.25-1.45-3.61-2.06-3.88-4.7-.24-2.44-.37-3.57,1.24-5.42,3.46-4,3.71-3.48,6.23-7.08,5.19-7.45,5-6.29,6.53-8.16,2.85-3.61,4.43-11.69,11.55-16.19a.6.6,0,0,1,.41-.09c.1,0,19.44,4.62,20.51,4.16,1.6-.69,7.55-5.52,8.45-6.25a1.4,1.4,0,0,1,.72-.42,11.22,11.22,0,0,0,3.1-.9,1,1,0,0,1,1.19.28,5.71,5.71,0,0,0,2.55,1.28c1.48.31,3-.5,3.28-.41.12,0,.18.26.26.41a.69.69,0,0,0,.65.37,3.55,3.55,0,0,0,.86-.1.75.75,0,0,0,.63-.57c0-.2.19-.23.44-.2,3.11.28,3.61-.13,3.63.53a9.15,9.15,0,0,0,1.26,4.85,35.21,35.21,0,0,1,3.14,7.19c.93,3.11.4,3,1.28,8.52.06.33.06.35-.28.37a16.08,16.08,0,0,0-4.31.52c-3.1.68-3.24.39-7.77.08-7.25-.49-13.7,1-18.12.52A11.67,11.67,0,0,1,89,127.78C88.66,127.3,87.86,127.77,89,129.18ZM49,159.45c-.2-.29-.36-.6-.57-1,3.34-3.27,2.35-2.79,3.18-4.85l1.11.79c-.28.52-.55,1.06-.78,1.61-1,2.5-2.29,2.92-1.92,3.5a.48.48,0,0,0,.37,0c.16-.08.17-.07,1.29-1.57a11.17,11.17,0,0,0,1.06-2.27l.44-1c.77.39,1.47.73,2.16,1.1.35.19.34.23.18.58-.86,1.84-1.71,2-3.38,4.81-.68,1.17-1.42,2.32-2.18,3.58a4,4,0,0,1-.63-1.7.82.82,0,0,1,0-.44A3.35,3.35,0,0,0,49,159.45Zm-.65-2c-.41.38-.74-.21-.75-.23-.42-.68-.54-.8-1-1a18.34,18.34,0,0,1,3.18-4.85,11.42,11.42,0,0,1,.91,1.05c.25.33.19,1.68-.71,3.19A12.22,12.22,0,0,1,48.34,157.46ZM51,164.3a33.36,33.36,0,0,0,2.16-3.46c.57-1.23,1.76-1.94,2.74-3.91.12-.24.18-.47.38-.32.48.37,1,.76,1.48,1.18-.29.32-.52.62-.8.88a9.7,9.7,0,0,0-1.73,2.05c-2.7,4.45-2.67,4.28-2.81,5a2.56,2.56,0,0,1-2.12-.5A7.75,7.75,0,0,0,51,164.3Zm57.09-59c-.16,0-.35-.08-.39-.28s-.32,0-.32.15-.23.45-.43.62c-.51.44-1,.9-1.54,1.33s-.94.59-1.15,1.18c-.07.18-.32.07-.46,0a1.17,1.17,0,0,1-.09-1.89.92.92,0,0,1,.28-.24,5.64,5.64,0,0,0,1.39-1.32c.93-1,1.68-1.11,1-1.48s-.32-.06-.76.4a10.72,10.72,0,0,1-2.09,2,2.59,2.59,0,0,0-.82,1.2,2.55,2.55,0,0,1-1.85,1.52c-.21,0-.44.09-.57-.14s0-.38.17-.51a3.73,3.73,0,0,0,1.12-1.81,2.82,2.82,0,0,1,.35-.57c.74-1,.49-1.44,2.08-2.26l.88-.47a.56.56,0,0,0,.32-.38.15.15,0,0,0-.17-.17,4.57,4.57,0,0,0-1.53.64,3.32,3.32,0,0,0-1.24,1,6.07,6.07,0,0,1-.51,1,3.64,3.64,0,0,0-.67.85c-.22.46-.24,1.1-1,1.59a1.38,1.38,0,0,1-.93.23A.32.32,0,0,1,99,107c.68-.75,1.39-1,1.87-2.34a3.88,3.88,0,0,1,1.52-1.89,2.91,2.91,0,0,0,.69-.71,4.2,4.2,0,0,1,2.1-1.38,4.46,4.46,0,0,1,2.23.15,8.43,8.43,0,0,1,2.74,1.14c1.06.67,2.22,1.1,3.32,1.67a16.66,16.66,0,0,0,1.66.77c1.26.47,1.43.15,1.58.66A12,12,0,0,1,117,109c0,.27-.19.52-.43.48-.79-.12-1.31.64-3.17.56a3.15,3.15,0,0,1-1-.31,5.13,5.13,0,0,1-1.72-1.07c-.43-.41,0-.41.41-1.1,0-.11,0-.28-.34-.17a13.86,13.86,0,0,1-3.15,1.62,8.54,8.54,0,0,1-1.72.45c-1.15.22-1.41-.86-.6-1.48.51-.38,1.07-.76,1.54-1.17s.91-.76,1.36-1.16A.16.16,0,0,0,108.1,105.33Zm9.37,2.21a11.25,11.25,0,0,0-.86-4.06c.07-.09.67-.07.8,0s.28.24.46.76a15.66,15.66,0,0,1,.47,4.52,4.3,4.3,0,0,1-.21,1.18c-.15.56-.4.68-1,.56.07-.19.15-.38.22-.58A6.57,6.57,0,0,0,117.47,107.54Zm7.15,7.8a9.27,9.27,0,0,1-1.41-4.6c0-.22,0-.45.28-.42,7.47.51,6.67.76,10.89.93a85.36,85.36,0,0,0,11.81,0c6.21-.61,8-1.85,9.76-8.24.08-.24.2-.21.25-.14-.38,6.05-3.08,10.1-3.57,14.5a21.34,21.34,0,0,1-3,7.1,12.91,12.91,0,0,1-9.74,5.62,38.41,38.41,0,0,0-6.12,1.11,13.62,13.62,0,0,1-4.32.48c-.22,0-.29-.11-.33-.32C128.76,129.63,128.6,121.36,124.62,115.34Zm30.9-13.11c-2.13,8.1-4.61,7.61-11.2,8.34a68.23,68.23,0,0,1-10.65-.1c-4.9-.34-7.15-.82-14.35-1l-.59,0a18.86,18.86,0,0,0-.35-5.21l13.38-3.44c5.5-1.39,9.17-1.54,10.8-3.2.67-.68.61-1.68.77-3.73,0-.22,0-.5.11-.64s.4,0,.61-.06c7.55-1,6.31-1,10.3-.92,2.57,0,2.79,0,2.79.74A35.22,35.22,0,0,1,155.52,102.23Zm-33.32-.14c.91-17.4,3-32.91,4.11-38.42.59,1.78,1.39,3.79,3,4,1.79.27,4.18-2,5.31-3.52a20.54,20.54,0,0,0,3.1-6.39c.87-2.66.12,1.11-.64,4.07-.32,1.22-2,5.68-3.35,10.81a38.1,38.1,0,0,0-1.44,10.22c-.07,1.06-.83,4.16-1,6.25,0,.19.14-1.65-1,10.41-.06.64-.2,1.14-1,1.27s-5.67,1.54-6.62,1.7C122.24,102.55,122.18,102.48,122.2,102.09Zm17.23-48.81c1.89.47,9.7,3.16,10.08,4.27a7.23,7.23,0,0,0-3.12,1.58c-5.62,4.56-5.49,12.92-5.95,20.2-.33,3.89-1.11,4.56-.89,7.58.07,1.36.07,5.53,0,6.13-.05,1.28,1.9,1.49,2.92,1.51a4.35,4.35,0,0,1-.19,2.12,2.53,2.53,0,0,1-1.77,1.45c-.43.13-8.77,2.07-9.72,2.17,1.43-16.4,1.69-13.88,2.1-17.82a46.34,46.34,0,0,1,.87-7.17c.3-1.45,2.29-8.26,2.3-8.28.44-1.47,1.37-3.67,1.85-5.88C139.57,53.67,138.55,53.06,139.43,53.28Zm-36-12.87c-.2.12-.32.07-.38-.16-.59-2.31-.63-2.22.11-2.45,2.46-.81,3.32-.75,3.45-1.58.22-1.44-2.79-1.11-4.15-.87-.35.06-.41.07-.46-.29a15.75,15.75,0,0,1-.16-1.83c0-.95.81-.14,4.22-.29.62,0,2.3-1.62-3.33-2.5a.2.2,0,0,1-.17-.18c0-.57.57-2.13,1.17-2a36.33,36.33,0,0,0,3.63,1.29.84.84,0,0,0,1-.59c.24-.79-2.11-2.38-2.82-2.72-.28-.14-.32-.31-.22-.54.24-.54,1.27-2.34,1.89-1.77,1.57,1.46,2.06,2.14,2.47,2.49s1,.27,1.13-.39c.36-1.56,0-2.23-1.07-4.49-.23-.5-.23-.58.2-.88a6.59,6.59,0,0,1,.86-.49.63.63,0,0,1,.84.16,5.56,5.56,0,0,1,1.39,3.11c.14,1.09.6.57.62.41a11.65,11.65,0,0,1,.65-4.54c.33-.76.44-.77,1.07-.46l1.36.64c-.9,1.47-1.6,3.63.06,4.09a1.25,1.25,0,0,0,1.4-.36c.83-1.06.87-1.81,1.06-3.76,0-.29.12-.49.43-.56s.74-.2,1.12-.26a.44.44,0,0,1,.51.42,7.47,7.47,0,0,1,0,2.74c0,.1-.26.55.06.72s.66-.45.89-.94c.6-1.29,1.54-4.08,2.71-3.63.69.26,1.83.64,1.45,1.26-.78,1.29-1.43,2-1.18,3.25,0,.34.41.59.83.2,3.22-2.95,2.4-3.89,3.32-3.53a13.24,13.24,0,0,1,1.29.68c.28.16.26.52.17.81-.6,2-1.21,2.32-2.59,3.36-.36.27.08.73.35.57a9.22,9.22,0,0,1,5.72-2c.88,0,1,1.74,1.06,2.36-2.48,0-4,.72-4.13,1.34s.61.76,1.43.6c2.06-.21,3.18-.55,3.3.12a18.19,18.19,0,0,1,.1,1.95c0,.25-.22.19-.4.2-1.47-.05-2,.1-2.38.37s-.19.49.27.44a6.8,6.8,0,0,1,3.38.2c.6.22,1,.47,1,.75s-.36,1.11-.45,1.5c-.06.22-.19.27-.43.27-4.09,0-3.23,1-2.79,1.24,1.32.68,1.6.79,1.33,1.22A13.54,13.54,0,0,0,134,40c-1.8-1.74-4.91-.63-5.62,1.76A2.17,2.17,0,0,1,126.49,43c-1,.1-.11-1.19,0-1.44.77-1.72-3.07-.17-2.24-2,.33-.75,1.33-1.61,0-2.15-3-1.25-1.59-3-1.21-3.25s.16-.67-.28-.41c0,0-2.72,2-2.33.44.13-.53-.33-.61-.54-.19-.62,1.23-3.07,3-4.51,1.23-.75-1-.41,0-3.54,2.4a5.3,5.3,0,0,1-3,1.06A11.21,11.21,0,0,0,103.47,40.41Zm17.28,19.4c-4.31-.2-6.76-3.94-7.16-7.87a3.89,3.89,0,0,0,2.29,0c.16-.07.48-.57-.14-.55-1.82,0-2.93-.37-3.46-1.15-.72-1.07.44-1.91,2.31-1.51.78.17,1.07-.35.28-.52a4.31,4.31,0,0,0-1.79-.09c-.46.12-.21-.28-.8-.67-.33-.26-.64-.1-.67.32,0,.07,0,.26,0,.34a3,3,0,0,1-.95-1.23c.32,0,.67-.09.81-.35s-.08-.81-.32-.62a1,1,0,0,1-.92.23,21.8,21.8,0,0,1-1.32-6.51c0-.25,0-.36.34-.4,2.58-.34,3.67-1.6,5.59-3.4.15-.14.21-.23.4,0,1.68,1.5,3.62.37,4.69-.76.19.42,1,.59,1.92,0-.2,1.53.68,2.31,2,2.8.89.33.13.7-.23,1.86a1.13,1.13,0,0,0,1.09,1.52c.4,0,.81,0,1.31,0-.37.67-.77,1.2-.5,1.8a.75.75,0,0,0,.58.49,2.26,2.26,0,0,0,2.63-1.38,3.8,3.8,0,0,1,1.69-2c1.95-1,4,.48,4.22,3.1.15,2-1,4.18-2.94,4.52a3,3,0,0,1-1.91-.53.25.25,0,0,0-.3.41,3.57,3.57,0,0,0,1.53.73c.81.21,1.61.48,2.42.69s.85.59,4,3.33c.51.43.85.65.63,1.81a24.32,24.32,0,0,1-1.76,5.76c-1.23,2.67-4.23,7.46-7.13,7-1.94-.28-2.66-5.67-2.68-5.82-.06-.34,0-.13,2,1.65.09.09.46.32.57.1s-.15-.53-.28-.64c-.56-.48-1.6-1.54-2.4-2.33a.82.82,0,0,1,.09-1.25,15.7,15.7,0,0,0,5.06-5.58c.1-.21.37-.62.15-.69s-.44.09-.86.76C128.83,56.41,124.61,60,120.75,59.81Zm4.93.63a.78.78,0,0,1,.18.7c-.33,2.83-.47,4.06-.55,4.72-.13,1.14-1.49,7.57-3.09,24.25,0,0-.7,11.18-.68,12.35a.4.4,0,0,1-.33.46c-3.12.79-3.06.83-3.23.43a.52.52,0,0,0-.31-.31,2.19,2.19,0,0,0-.67-.11c.07-.65,2-10.14,2.91-16.39,1.49-9.79,1.55-15.6,5.25-25.62A.69.69,0,0,1,125.68,60.44ZM114,86.33c.46-3.14,3.07-13.09,4.06-16.26,1.2-3.87,2.93-6.81,6.41-8.84-3.47,9.63-4,16-5.13,25.23,0,.15-.09.22-.24.2A23.34,23.34,0,0,0,114,86.33ZM87.89,94.88c3.81.16,3.12,0,4,.09a44,44,0,0,1,9.44,1.3c.76.14,2.55.31,4,.58a52.1,52.1,0,0,0,5.68,1.06c.47,0,3.34.37,3.45-.11.06-.26-.22-.25-.38-.33s-.52.09-.6-.18c0-.09,1.73-9.69,1.73-9.71s.07-.27.1-.41a.25.25,0,0,1,.29-.23,15.84,15.84,0,0,1,3.18.22c.39,0,.43.12.35.48-1.57,7.14-2.26,14-2.76,15.25a1.7,1.7,0,0,0-1,.92c-1.27-.64-2.63-1.15-3.87-1.91a12,12,0,0,0-5.83-1.9c-1,0-1.69.56-3,1.35-4.3-1-4-.42-3.88-1.31,0-.35-.32-.39-.43-.09s-.18.67-.31,1c-1.53,3.86-2.19,6.17-2.66,5.24s.11-3.14.2-4.24a1.2,1.2,0,0,0-.77-1.15,4.44,4.44,0,0,0-2.6-.63,17.2,17.2,0,0,0-2.41.74,1.09,1.09,0,0,0-.6,1.51c.21.59.43,1.18.62,1.77a.82.82,0,0,1-.42,1.15c-.32.2-.57.11-.65-.26-.58-3.07-1.55-2.55-1.19-4,.45-1.72.69-1.61,3.18-2.49.85-.3.49-.88,0-.65-1.39.68-3.92.7-3.86,3.79a3.81,3.81,0,0,1-.24.89c0,.19,0,.59,0,.78-.16.86-.85.89-.91.36-.11-1-.57-1.72-.34-2.21.71-1.3-.27-2.52,1.81-3.51l1-.5c.45-.22,0-.5-.19-.42-2.35.84-2.41,1.28-2.78,2.38-.13.37,0,.52-.21,1.29-1.14-.41-.57-.73-.17-2.61.24-1.1,1.13-1.26,2.42-1.84.72-.33.51-.67.22-.59a5.62,5.62,0,0,0-1.13.33,3.72,3.72,0,0,0-1.7,1.14.68.68,0,0,1-.15.08C84.28,96.68,85.85,94.8,87.89,94.88Zm6.57,11.79c-1.41,1.13-2.81,2.26-4.21,3.41a.7.7,0,0,1-.64.12l-3.22-.64,2.1-1.6a.69.69,0,0,1,.63-.16c.66.16,1.33.26,2,.37.14,0,.4.14.42-.13s-.2-.23-.38-.26l-2-.35c1.74-1.36,2.13-1.67,2.21-1.71a1.13,1.13,0,0,1,.79,0c.68.16,1,.24,1.12.25a.2.2,0,0,0,.08-.38l-1.3-.33c.62-.47,1.73-1.33,2.17-1.63.18-.17.29-.35.06-.43s-3.94-.6-4.29-.65a.5.5,0,0,1,0-.12l1-.46c.73-.36.72-.64.46-.58a9.25,9.25,0,0,0-1.34.56c-.46.23-.42-.21-.2-.37a10.9,10.9,0,0,1,1.91-.69,3,3,0,0,1,2.59.35c.92.57.75.38.47,2.17C94.46,106.32,95.22,106.07,94.46,106.67Zm-9.81-5.28c-1.21-.41-2.47-.44-3.79-.78l3.32-1.76c-.06.56-.44,1-.36,1.47A1.6,1.6,0,0,0,84.65,101.39Zm3.29,2.51a10.73,10.73,0,0,0,.61,1.69.9.9,0,0,0,1.2.28,1.66,1.66,0,0,0,.77-.88,3.65,3.65,0,0,0-.35-1.67c-.07-.35,0-.46.39-.4l3.06.56a13.54,13.54,0,0,1-2,1.55c-.38.16-.52,0-.79,0a.16.16,0,0,0-.14.14c0,.23.3.21.37.31-.7.53-1.49,1.1-2.18,1.66a.68.68,0,0,1-.58.12l-4.1-.78Zm-.78-.06c0-.36.1-.7.16-1.09C87.88,103.44,87.88,103.46,87.16,103.84Zm-3.29,2.33a.85.85,0,0,1-.69.15c-2.74-.54-3.51-.58-4.15-.82.37-.31,1.59-1,2.52-1.63a.71.71,0,0,1,.55-.08c.78.17,1.57.31,2.36.45a.28.28,0,0,0,.2,0,.48.48,0,0,0,.14-.2.32.32,0,0,0-.15-.12c-.24-.06-2-.39-2.24-.43a.43.43,0,0,1,0-.11l2.32-1.46a5.94,5.94,0,0,1,.45,2.21c0,.49,0,.53.56.75Zm.3-4.47c-.26.17-1.67,1.06-2.15,1.38a1.17,1.17,0,0,1-.94.17c-.86-.19-1.73-.35-2.6-.51H78a.5.5,0,0,0,0,.13c.09.06.18.17.29.19,2.73.51,2.59.4,2.8.57a26,26,0,0,1-2.43,1.59.84.84,0,0,1-.72.12l-3.5-.62c-.12,0-.29-.1-.38,0a.21.21,0,0,0-.07.12c0,.28.26.21.39.24,1.1.22,2.21.42,3.44.64-1.75,1.24-1.77,1.12-2.09,1.5a.65.65,0,0,1-.64.14c-4.16-.86-4.42-.91-4.66-.94a.09.09,0,0,1-.09-.08c0-.13-.06-.09,3.24-1.83,7.14-3.77,6.79-3.6,7-3.57S83.78,101.52,84.17,101.7Zm-5.46,4.17,4.19.77a.09.09,0,0,1,0,.17c-1.84,1.28-1.92,1.37-2,1.42a1.28,1.28,0,0,1-.92.08c-4-.85-3.84-.66-4.17-.92C78.25,106,78.29,105.83,78.71,105.87Zm2.66,2.54c2.32-1.62,2.25-1.6,2.51-1.56,4.39.79,4.24.7,4.26.8a.07.07,0,0,1,0,.08,16.74,16.74,0,0,0-2,1.55.58.58,0,0,1-.52.12c-1.15-.24-3.45-.66-4.19-.81A.1.1,0,0,1,81.37,108.41Zm-19.91-.55a2.74,2.74,0,0,1-1.33-.88C57.73,104.15,42.75,81,41.71,77.65a3.35,3.35,0,0,1,.56-3.53c0,1.93,1.2,3.67,2.38,5.93,2.4,4.59,7.06,11.92,7.74,13,4.21,6.78,3.83,6.24,8.46,12.9a3.32,3.32,0,0,1,.57.89A3.71,3.71,0,0,1,61.46,107.86Zm1,.34c-.24-.08-.51-.14-.52-.38,0,0,0-.79,0-.84a.16.16,0,0,1,.2-.12c10.71,2.26,24,6.49,34.4,7.71.44.05.66-.09,5.38-3.59.54-.4.75-1-.09-.41-1.29,1-3.54,2.55-4.88,3.39-.26.19-.46.07-.77,0a136.76,136.76,0,0,1-14.6-2.83c-.55-.12-18.49-4.56-18.73-4.6s.13-.17.2-.21c2.45-1.33,12-5.84,20.52-9.82.27-.12.34-.61-.43-.28-12.67,5.52-13.54,6.32-21,9.79a.5.5,0,0,1-.67-.22C54.76,96.07,48.31,85.35,44.38,78.3c-1-1.88-1.41-2.64-1.39-3.73a1.57,1.57,0,0,1,1.27-1.71c5.22-1.54,24.12-3.63,25.44-3.76a2.78,2.78,0,0,1,3.09,1.4c.7,1,12.58,24.15,12.64,24.25a.29.29,0,0,1-.09.45c-1,.87-1.83,1.49-1.13,2.65.21.35.19.38-.2.59-13.93,7.38-14.56,7.41-14.09,8.09a1.56,1.56,0,0,0,1,.47l18.6,3.65a.8.8,0,0,0,.87-.23c.76-.7.36-.21,4.31-3.42a.53.53,0,0,1,.66-.09.81.81,0,0,0,1.11-.37,5.38,5.38,0,0,0,.42-1c.25-.78.46-.44,3.46-3,.41-.33.11-.61-.24-.33l-2.5,2-.23.15a26.46,26.46,0,0,1,1.28-3.31l3.84.75a7.17,7.17,0,0,1-.62.5,3.22,3.22,0,0,0-1.27,1.44,8.51,8.51,0,0,1-2,2.83c-.53.63-.32,1.26.5,1.43a4,4,0,0,0,.51.06,1.28,1.28,0,0,0,1.73,1,8.46,8.46,0,0,0,1.59-1c.26.42.78.94,1.36.81a1.19,1.19,0,0,0,.79,1c-3.57,2.78-7.12,5.74-8.6,6C95.71,116.13,72.8,111.75,62.46,108.2ZM44.83,143.91c-1-4.61,1.08-5.78,4-8.95,4.48-4.93,3.67-6,8.47-11.17,2.76-3,2.5-4.13,4.29-7.66a21,21,0,0,1,4.16-5.95.65.65,0,0,1,.8-.17c4.81,1.42,6.57,1.67,8.34,2.21-.11.12-.22.24-.34.35-5.45,5-5.75,5.83-8.29,11.23A16.6,16.6,0,0,1,63,129c-5,5.35-3.8,5.07-6.58,8.42-3.11,3.76-4.12,4.19-6.06,6.71-1,1.33-.84,2.25-1,4.19a16.14,16.14,0,0,1-3-1.93A4.48,4.48,0,0,1,44.83,143.91Zm-1.64,7.89c.35-.35.7-.7,1.06-1,1.29-1.21,1.26-2.92,1.74-3.48l1.08.77c-1.5,3.87-3,4.62-2.56,5,.28.24.64-.27.7-.33a14.19,14.19,0,0,0,2.32-4.11c.09-.19.21-.26.42-.15l1.13.59a.65.65,0,0,1,.42.5c0,.5.11.81-.19,1.21a37.11,37.11,0,0,0-3.77,5.66c-.12.2-.13.18-1.39,1a2,2,0,0,1-.19-1.66,3.5,3.5,0,0,0-.83-3.37A.42.42,0,0,1,43.19,151.8Zm-6,1.28a25.35,25.35,0,0,1,3.48-2.44c.42-.27.39.14,2.16,2.74a3,3,0,0,1,.09,3.19,1.45,1.45,0,0,1-1.39.87,9.07,9.07,0,0,0-2.83.51c-.4.13-.8.24-1.31.39C37,154.05,36.64,153.52,37.19,153.08Zm5.21,14.18c.08.46-.18.78-.65.72a43.73,43.73,0,0,1-7.17-1.58,3.4,3.4,0,0,1-1.68-.82,9.29,9.29,0,0,1-.86-4.52,1.1,1.1,0,0,1,.74-.74c2.88-.86,1.8-.36,5-1.29,2.31-.67,3.3-1.15,4.65-.58a1.77,1.77,0,0,0-.83,1.52A49.61,49.61,0,0,0,42.4,167.26ZM26.89,154.89a1,1,0,0,1,.73-.81c6.29-1.62,6.28-2,7.9-2.19,1.06-.14,1.31-.16,1.48.32a1.59,1.59,0,0,0-.76,1.49c0,.7.24,3,.37,4.71,0,.52-.67.16-3.83,1.14a2.88,2.88,0,0,0-1.21.69.47.47,0,0,1-.36.13c-.92-.22-1.84-.44-2.74-.72-.54-.11-.81-.34-1-1a11.31,11.31,0,0,1-.63-3.11A1.62,1.62,0,0,1,26.89,154.89Zm-7.17,1.58a42.52,42.52,0,0,0,6.34-1.21,15.1,15.1,0,0,0,.83,3.85,3.13,3.13,0,0,0,2.23,1.59c.33.09.68.16,1.06.25-.51.53-3.22.53-5,.93a1.36,1.36,0,0,1-.77-.11,20.42,20.42,0,0,0-2.91-1.1c-.52-.1-1.34-.2-1.55-.21a5.66,5.66,0,0,0-.55-3.44C19.28,156.68,19.38,156.54,19.72,156.47ZM23.8,164a4.75,4.75,0,0,1,.25,2.79c-.07.57,0,1,.54.9A5.8,5.8,0,0,1,27,168a3.74,3.74,0,0,1,2.22,1.76c-.31.14-.54,0-.77-.09-3.24-1-8.9-2.83-11.15-5.35a1,1,0,0,1,.45-1.6c1.3-.44,2.39-.24,4.68-.36a3.34,3.34,0,0,1,1.33.06A1.69,1.69,0,0,0,23.8,164Zm-9-7.81a38.46,38.46,0,0,1,3.95,0,1.37,1.37,0,0,0,.06,1.35,4.47,4.47,0,0,1,.37,2.55c-.12.79-.1.78.52.92,1.11.26,2.28.11,2.26.52,0,.23-.83,0-2.11.15-2.52.23-7.87-3.27-7.6-4.22C12.43,156.81,13,156.31,14.8,156.15Zm-1.25,6.44a.47.47,0,0,1-.61,0c-3.26-2.13-3.19-1.29-1.38-4.55,1.13,1.66,4.28,3.48,5.75,4-.55.67-1.06,1.3-1.59,1.93-.07.08-.26.17-.29.14s-.24-.24-.23-.35A1.09,1.09,0,0,0,13.55,162.59Zm39.63,19c0,.42-.13.44-.52.31-2.82-.95-2.68-.58-2.66-1.36.12-1.08-1.38-1.48-1.72-.62-.13.24-.24.28-.53.24a17.73,17.73,0,0,1-3.11-1c-.21-.08-.29-.16-.23-.38.23-.9.14-1.1-.28-1.23-.7-.2-1.29-.28-1.57.34-.18.39-.22.4-.64.29a11.87,11.87,0,0,1-3.12-1,.26.26,0,0,1-.16-.37c.3-.83-1.09-1.48-1.55-.8-.59.88-3.25-.38-4.32-.82a.71.71,0,0,1-.45-.6c-.15-1.64-1.33-1.53-1.73-1.07a1.15,1.15,0,0,1-1.41.36c-3.63-1.28-3.41-1.19-3.5-1.78a1,1,0,0,0-1-1,1,1,0,0,0-.85.3c-.66.58-.77.38-3.62-1a.45.45,0,0,1-.29-.54c.14-.79-.93-1.68-1.7-1a.41.41,0,0,1-.56,0,21,21,0,0,1-2.41-1.6.76.76,0,0,1-.17-1l1.19-2.12c1.21,1.83,4.6,3.6,5.58,4,12.82,4.78,19.87,5,31.15,9.76.26.07.25.26.24.45C53.27,179,53.24,181,53.18,181.61ZM30.55,170.34l.26-.17a8,8,0,0,1,3.9-.33,7.07,7.07,0,0,1,4.94,2.32,2.71,2.71,0,0,1,.54.72Zm22.73,6.43c-.09.35-.18.42-.53.3a82.14,82.14,0,0,0-10.9-3.78l-.23-.14c3.06-2.27,8.49-3.73,11.84-2.5a1.92,1.92,0,0,1,.5.29.39.39,0,0,1,.12.31A15.67,15.67,0,0,1,53.28,176.77Zm1-6.49c-3.68-1.77-9.67-.16-12.59,1.94l-.69.51c-.49-.54-1-1.09-1.47-1.61a6.43,6.43,0,0,0-3.71-1.81c-2.64-.41-3.4-.38-5.42.28-.27.09-.39.1-.58-.18a4.68,4.68,0,0,0-3.56-2.35,14.24,14.24,0,0,0-1.44-.2,3.05,3.05,0,0,1,0-.74c.44-2-1.3-3.23-.17-3.43,3.06-.57,3.66-.23,6.25-1.11l.25-.06c0,1.32.37,3.89,1.42,4.81a3.81,3.81,0,0,0,1.54.78c3.47.91,6.45,1.75,7.9,1.6a1.29,1.29,0,0,0,1.1-1.63,53.43,53.43,0,0,1-.83-7.28.63.63,0,0,1,.25-.37,30.27,30.27,0,0,1,3.85-2.57c.63.42,1.07,1.67,1.76,2.76.09.17.21.33.3.5a3,3,0,0,1-.17,3c-.54.9-1.76.88-2.81,2.22a.31.31,0,0,0,.08.51c1.48-1,1.44-1,1.6-.61A5.64,5.64,0,0,0,51,168.7a3.62,3.62,0,0,0,3.1-.52c1.35-.84,1.28-.85,1.62-.87C55.24,168.35,54.78,169.31,54.31,170.28Zm1.23-3.83c-.5.32-.93.76-1.44,1a4.31,4.31,0,0,1-4,.11,5.27,5.27,0,0,1-2.47-2.83l1.13-.85c.48,2.68,3.33,3.25,5.34,2.05.75-.44,1.32-.89,2.11-1.39C56.19,165.33,56.23,166,55.54,166.45ZM59.86,159c-.4.33-.8.65-1.23,1a11.77,11.77,0,0,0-2.5,3.17c-.33.54,0,.61-.8,1.15-1.81,1.14-1.73,1.13-2.09,1.22l-.07-.08c1.54-2.62,1.49-2.41,2.83-4.63a21.28,21.28,0,0,1,2.36-2.71c.42.15.91.32,1.39.52C60,158.69,60.08,158.83,59.86,159Zm117.82-34.53c2.49,6.31,5,14,4.81,21.47-.14,5.37.16,5.48-3.28,13.92-1.44,3.53-5.72,8.91-9.12,11a35.41,35.41,0,0,1-13.22,4.57,154.57,154.57,0,0,0-20.06,4.17c-8.89,1.8-12.49.78-21.32-1.06-7.58-1.74-8.82-1.86-18.76-1.72-18.69.28-37,1.87-36.39-16.84,0-.58.41-1.22,1-1.12a18.09,18.09,0,0,0,5.32-.69c1.45-.35,6.34-.93,7.54-4.16.48-1.32.61-1.19,3.22-5.35,4.2-6.68,6.23-6.58,9.55-8.86,1.3-.89,1.67-2.29.54-4a10.58,10.58,0,0,0,3.6-1.1,2.16,2.16,0,0,0,1.09-2.8,14.11,14.11,0,0,0,6.39,1.72c4.05.08,9.9-1.24,14.87-.71V133a32.29,32.29,0,0,0-13.66,4.28A7.77,7.77,0,0,0,97,140c-.13.25.09.35.25.21a18.86,18.86,0,0,1,3-2.23c2.58-1.67,8.49-3.67,14.24-4.17,3.54-.31,5.18-.12,8.51-.77a36.26,36.26,0,0,1,5.4-.59c1.9-.06,2.36.32,5.76-.46a47.87,47.87,0,0,1,6.86-1.25c4.45-.66,5.79-2.35,9.5-5.79a67.85,67.85,0,0,1,13.82-10.11,54.79,54.79,0,0,1,5.65-2.73c.75-.32.63-1.08-.37-.64-12,4.88-17.2,11.14-18.68,12,1.57-4,10.66-13.94,13.16-16a.22.22,0,0,0-.23-.37,3.2,3.2,0,0,0-.68.42c-5.12,4-9.41,10.78-10.12,11.29.91-5.79,1.24-5.12,2.65-10.23a21.42,21.42,0,0,0,1-5.2c.15-1.35.79-7.41,1-9.14.07-.52.15-.6.58-.64,1.33-.12,3.31-.41,3.33-1.73a132.86,132.86,0,0,0-.57-13.34c-.44-5.51-.26-3.48-.66-5.67-.78-4.27-1.43-6.37-2.78-8.64-.15-.25-.05-.43.24-.51a9.42,9.42,0,0,1,6.06.9,29.24,29.24,0,0,1,6.85,5.11c2.65,2.6,3.79,5.89,5.17,9.61,2.53,6.83,2.12,14.22,2.06,21.89C178,106.48,174.57,116.62,177.68,124.48Z" style="fill: #000001"></path>
    <path d="M17.31,162c-.55.67-1.06,1.3-1.59,1.93-.07.08-.26.17-.29.14s-.24-.24-.23-.35a1.09,1.09,0,0,0-1.63-1.13.5.5,0,0,1-.63,0c-3.26-2.13-3.19-1.29-1.38-4.55C12.69,159.7,15.84,161.52,17.31,162Z" style="fill: #ffffff"></path>
  </g></g></g></svg>